<svg xmlns="http://www.w3.org/2000/svg" width="129" height="115" viewBox="0 0 129 115" fill="none">
  <path d="M11.8069 11.8069C5.28602 11.8069 0 17.0929 0 23.6138V60.9989H11.8069V11.8069Z" fill="#DF8726"/>
  <path d="M1.34143 60.9996V23.6137C1.34143 18.2975 5.32557 13.8942 10.4654 13.2335V60.9989H1.34143V60.9996Z" fill="#E2AC31"/>
  <path d="M116.66 11.8069C123.181 11.8069 128.467 17.0929 128.467 23.6138V60.9989H116.66V11.8069Z" fill="#DF8726"/>
  <path d="M127.125 23.6144V61.0009H118.003V13.2314C123.141 13.8955 127.125 18.2955 127.125 23.6144Z" fill="#E2AC31"/>
  <path d="M116.66 26.0693V11.8069C105.697 4.86212 84.7589 0 64.2339 0C43.7089 0 22.7707 4.86212 11.8076 11.8069V26.0693C28.0218 24.0873 46.2134 22.9329 64.2339 22.9329C82.2544 22.9329 100.446 24.0866 116.66 26.0693Z" fill="#802018"/>
  <path d="M64.2332 22.933C46.212 22.933 28.0211 24.0866 11.8069 26.0693V44.9537C28.0211 42.9717 46.2126 41.8174 64.2332 41.8174C82.2537 41.8174 100.445 42.971 116.659 44.9537V26.0693C100.446 24.0866 82.2543 22.933 64.2332 22.933Z" fill="#802018"/>
  <path d="M11.8069 44.9537V60.9996H64.2332H116.659V44.9537C100.445 42.9717 82.2537 41.8174 64.2332 41.8174C46.2126 41.8174 28.0211 42.971 11.8069 44.9537Z" fill="#802018"/>
  <path d="M116.66 50.1586L115.233 57.4239L98.7677 61.0009L116.66 60.9996V50.1586Z" fill="#3E0D0B"/>
  <path d="M11.8069 50.1586L13.5051 58.5487L33.8853 60.9989L11.8069 60.9996V50.1586Z" fill="#3E0D0B"/>
  <path d="M64.2332 0C43.7081 0 22.7699 4.86212 11.8069 11.8069V13.3717C22.7699 6.42694 43.7081 1.56481 64.2332 1.56481C84.7582 1.56481 105.696 6.42694 116.659 13.3717V11.8069C105.697 4.86212 84.7582 0 64.2332 0Z" fill="#3E0D0B"/>
  <path d="M64.2332 22.933C46.212 22.933 28.0211 24.0866 11.8069 26.0693V28.5289C28.0211 26.5469 46.2126 25.3926 64.2332 25.3926C82.2537 25.3926 100.445 26.5462 116.659 28.5289V26.0693C100.446 24.0866 82.2543 22.933 64.2332 22.933Z" fill="#3E0D0B"/>
  <path d="M64.2332 41.8174C46.212 41.8174 28.0211 42.971 11.8069 44.9537V47.2087C28.0211 45.2267 46.2126 44.0724 64.2332 44.0724C82.2537 44.0724 100.445 45.226 116.659 47.2087V44.9537C100.446 42.971 82.2543 41.8174 64.2332 41.8174Z" fill="#3E0D0B"/>
  <path d="M18.6644 51.4082H38.2799L29.6986 52.9757L18.6644 51.4082Z" fill="#3E0D0B"/>
  <path d="M97.8307 55.5801H110.761L92.0611 56.3454L97.8307 55.5801Z" fill="#3E0D0B"/>
  <path d="M116.66 31.0414L115.009 41.8173L98.7677 43.1729L116.66 44.9537V31.0414Z" fill="#3E0D0B"/>
  <path d="M11.8069 29.4766L13.5051 41.8173L32.9483 42.9314L11.8069 44.9537V29.4766Z" fill="#3E0D0B"/>
  <path d="M45.0469 31.0414H80.7566L65.3754 33.943L45.0469 31.0414Z" fill="#3E0D0B"/>
  <path d="M25.5226 35.5132H38.2799L32.9483 33.943L25.5226 35.5132Z" fill="#3E0D0B"/>
  <path d="M101.913 36.4032H113.444L108.931 34.7284L101.913 36.4032Z" fill="#3E0D0B"/>
  <path d="M116.66 13.3723L114.562 24.7814H100.253L116.66 26.0692V13.3723Z" fill="#3E0D0B"/>
  <path d="M11.8069 13.3723L14.6233 22.9329L43.2413 23.6633L11.8069 26.0692V13.3723Z" fill="#3E0D0B"/>
  <path d="M64.655 8.46057L102.225 10.4728L85.7207 11.8068L64.655 8.46057Z" fill="#3E0D0B"/>
  <path opacity="0.2" d="M62.9017 51.4082C40.5423 51.4082 21.1951 38.559 11.8069 19.849V26.0687V44.9531V50.1586V60.999H33.8853H64.2332H98.7758L98.7677 61.001L116.659 60.999V50.1586V44.9531V26.0694V13.6763C108.712 35.6796 87.6463 51.4082 62.9017 51.4082Z" fill="#3E0D0B"/>
  <path d="M127.125 23.6144V44.018C126.105 52.3216 124.536 57.6472 122.765 57.6472C120.746 57.6472 118.975 50.6649 118.003 40.2216V13.2314C123.141 13.8955 127.125 18.2955 127.125 23.6144Z" fill="#F1CE3D"/>
  <path d="M1.34344 23.6144V44.018C2.36295 52.3216 3.93246 57.6472 5.70319 57.6472C7.72209 57.6472 9.49282 50.6649 10.4654 40.2216V13.2314C5.32758 13.8955 1.34344 18.2955 1.34344 23.6144Z" fill="#F1CE3D"/>
  <path d="M128.467 60.9994H0V114.695H128.467V60.9994Z" fill="#DF8726"/>
  <path d="M127.125 60.9995H1.34143V113.354H127.125V60.9995Z" fill="#F1CE3D"/>
  <path d="M118.405 60.9989H10.0609V104.634H118.405V60.9989Z" fill="#DF8726"/>
  <path d="M116.66 60.9995H11.8069V81.9437H116.66V60.9995Z" fill="#802018"/>
  <path d="M116.66 81.9437H11.8069V102.888H116.66V81.9437Z" fill="#802018"/>
  <path d="M116.66 60.9989H11.8069V62.3424H116.66V60.9989Z" fill="#3E0D0B"/>
  <path d="M116.66 81.7936H11.8069V81.9438H116.66V81.7936Z" fill="#3E0D0B"/>
  <path d="M116.66 81.9438H11.8069V83.3584H116.66V81.9438Z" fill="#3E0D0B"/>
  <path d="M116.66 67.67L115.904 78.943L90.1871 81.9439H116.66V67.67Z" fill="#3E0D0B"/>
  <path d="M116.66 86.938L115.4 99.2325L66.1018 102.888H116.66V86.938Z" fill="#3E0D0B"/>
  <path d="M91.381 85.3149H112.446L97.8307 86.9381L91.381 85.3149Z" fill="#3E0D0B"/>
  <path d="M11.8069 81.9438L13.2818 100.909L29.6986 102.888H11.8069V81.9438Z" fill="#3E0D0B"/>
  <path d="M11.8069 60.9995L13.9525 78.7752L25.5226 81.9437H11.8069V60.9995Z" fill="#3E0D0B"/>
  <path d="M19.535 94.913L49.4181 96.0009L34.823 93.6433L19.535 94.913Z" fill="#3E0D0B"/>
  <path d="M21.7779 77.8751H41.6034L33.8853 79.334L21.7779 77.8751Z" fill="#3E0D0B"/>
  <path d="M116.66 102.888L128.467 114.695C128.467 114.695 123.9 113.698 116.66 102.888Z" fill="#DF8726"/>
  <path d="M11.8069 102.888L0 114.695C0 114.695 4.567 113.698 11.8069 102.888Z" fill="#DF8726"/>
  <path d="M64.2332 49.6166C67.6489 49.6166 70.4179 47.2569 70.4179 44.346C70.4179 41.4352 67.6489 39.0754 64.2332 39.0754C60.8174 39.0754 58.0483 41.4352 58.0483 44.346C58.0483 47.2569 60.8174 49.6166 64.2332 49.6166Z" fill="#F1CE3D"/>
  <path d="M48.4911 58.5488H44.9772C42.3774 58.5488 40.2619 56.434 40.2619 53.8342V42.4486C40.2619 39.8488 42.3767 37.734 44.9772 37.734H45.8558C48.0491 37.734 49.8326 39.5182 49.8326 41.7108C49.8326 43.9034 48.0498 45.6875 45.8578 45.6875H42.9449V53.8342C42.9449 54.9543 43.8564 55.8659 44.9772 55.8659H48.4911V58.5488ZM42.9449 43.0046H45.8578C46.5702 43.0046 47.1497 42.4244 47.1497 41.7108C47.1497 40.9971 46.5695 40.4169 45.8558 40.4169H44.9772C43.857 40.4169 42.9449 41.3285 42.9449 42.4486V43.0046Z" fill="#DCA226"/>
  <path d="M83.4898 58.5488H79.9759V55.8659H83.4898C84.6099 55.8659 85.5215 54.9543 85.5215 53.8342V45.6875H82.6091C80.4172 45.6875 78.6344 43.9034 78.6344 41.7108C78.6344 39.5182 80.4185 37.734 82.6112 37.734H83.4898C86.0896 37.734 88.2044 39.8488 88.2044 42.4486V53.8342C88.2044 56.4333 86.0896 58.5488 83.4898 58.5488ZM82.6112 40.4169C81.8975 40.4169 81.3173 40.9971 81.3173 41.7108C81.3173 42.4244 81.8968 43.0046 82.6091 43.0046H85.5215V42.4486C85.5215 41.3285 84.6099 40.4169 83.4898 40.4169H82.6112Z" fill="#DCA226"/>
  <path d="M53.1949 97.1943C42.0789 91.4857 43.7819 77.833 43.8007 77.6955L43.957 76.5331H55.354V79.216H46.3696C46.2408 82.3309 46.652 90.8176 54.4204 94.8071L53.1949 97.1943Z" fill="#DCA226"/>
  <path d="M75.2714 97.1943L74.0459 94.8071C81.7325 90.8599 82.1926 82.3255 82.088 79.216H73.1129V76.5331H84.51L84.6663 77.6955C84.6851 77.833 86.3874 91.4863 75.2714 97.1943Z" fill="#DCA226"/>
  <path d="M19.7718 64.7504H55.354V60.999H16.0204C16.0204 63.0709 17.6999 64.7504 19.7718 64.7504Z" fill="#F1CE3D" stroke="#DCA226" stroke-miterlimit="10"/>
  <path d="M32.9483 64.7504H19.535C19.535 66.8223 21.2145 68.5011 23.2857 68.5011H32.9483V64.7504Z" fill="#F1CE3D" stroke="#DCA226" stroke-miterlimit="10"/>
  <path d="M40.5919 64.7504H27.1786C27.1786 66.8223 28.8582 68.5011 30.9294 68.5011H40.5919V64.7504Z" fill="#F1CE3D" stroke="#DCA226" stroke-miterlimit="10"/>
  <path d="M48.2362 64.7504H34.823C34.823 66.8223 36.5025 68.5011 38.5737 68.5011H48.2362V64.7504Z" fill="#F1CE3D" stroke="#DCA226" stroke-miterlimit="10"/>
  <path d="M55.354 64.7504H43.4821C43.4821 66.8223 45.1616 68.5011 47.2328 68.5011H55.354V64.7504Z" fill="#F1CE3D" stroke="#DCA226" stroke-miterlimit="10"/>
  <path d="M36.4052 68.5018H22.9919C22.9919 70.5737 24.6715 72.2526 26.7427 72.2526H36.4052V68.5018Z" fill="#F1CE3D" stroke="#DCA226" stroke-miterlimit="10"/>
  <path d="M44.0496 68.5018H30.6363C30.6363 70.5737 32.3158 72.2526 34.387 72.2526H44.0496V68.5018Z" fill="#F1CE3D" stroke="#DCA226" stroke-miterlimit="10"/>
  <path d="M55.354 68.5018H38.2799C38.2799 70.5737 39.9594 72.2526 42.0306 72.2526H55.354V68.5018Z" fill="#F1CE3D" stroke="#DCA226" stroke-miterlimit="10"/>
  <path d="M40.0661 72.2524H26.6528C26.6528 74.3243 28.3323 76.0032 30.4035 76.0032H40.0661V72.2524Z" fill="#F1CE3D" stroke="#DCA226" stroke-miterlimit="10"/>
  <path d="M47.7104 72.2524H34.2964C34.2964 74.3243 35.976 76.0032 38.0472 76.0032H47.7097L47.7104 72.2524Z" fill="#F1CE3D" stroke="#DCA226" stroke-miterlimit="10"/>
  <path d="M55.354 72.2524H41.9408C41.9408 74.3243 43.6203 76.0032 45.6915 76.0032H55.354V72.2524Z" fill="#F1CE3D" stroke="#DCA226" stroke-miterlimit="10"/>
  <path d="M108.695 64.7504H73.1129V60.999H112.446C112.446 63.0709 110.766 64.7504 108.695 64.7504Z" fill="#F1CE3D" stroke="#DCA226" stroke-miterlimit="10"/>
  <path d="M95.518 64.7504H108.931C108.931 66.8223 107.252 68.5011 105.181 68.5011H95.518V64.7504Z" fill="#F1CE3D" stroke="#DCA226" stroke-miterlimit="10"/>
  <path d="M87.8744 64.7504H101.288C101.288 66.8223 99.6082 68.5011 97.5369 68.5011H87.8744V64.7504Z" fill="#F1CE3D" stroke="#DCA226" stroke-miterlimit="10"/>
  <path d="M80.2307 64.7504H93.644C93.644 66.8223 91.9645 68.5011 89.8933 68.5011H80.2307V64.7504Z" fill="#F1CE3D" stroke="#DCA226" stroke-miterlimit="10"/>
  <path d="M73.1129 64.7504H84.9849C84.9849 66.8223 83.3054 68.5011 81.2341 68.5011H73.1129V64.7504Z" fill="#F1CE3D" stroke="#DCA226" stroke-miterlimit="10"/>
  <path d="M92.0611 68.5018H105.474C105.474 70.5737 103.795 72.2526 101.724 72.2526H92.0611V68.5018Z" fill="#F1CE3D" stroke="#DCA226" stroke-miterlimit="10"/>
  <path d="M84.4174 68.5018H97.8307C97.8307 70.5737 96.1512 72.2526 94.08 72.2526H84.4174V68.5018Z" fill="#F1CE3D" stroke="#DCA226" stroke-miterlimit="10"/>
  <path d="M73.1129 68.5018H90.1871C90.1871 70.5737 88.5075 72.2526 86.4363 72.2526H73.1129V68.5018Z" fill="#F1CE3D" stroke="#DCA226" stroke-miterlimit="10"/>
  <path d="M88.4002 72.2524H101.814C101.814 74.3243 100.134 76.0032 98.0628 76.0032H88.4002V72.2524Z" fill="#F1CE3D" stroke="#DCA226" stroke-miterlimit="10"/>
  <path d="M80.7566 72.2524H94.1699C94.1699 74.3243 92.4904 76.0032 90.4191 76.0032H80.7566V72.2524Z" fill="#F1CE3D" stroke="#DCA226" stroke-miterlimit="10"/>
  <path d="M73.1129 72.2524H86.5262C86.5262 74.3243 84.8467 76.0032 82.7755 76.0032H73.1129V72.2524Z" fill="#F1CE3D" stroke="#DCA226" stroke-miterlimit="10"/>
  <path d="M77.8329 61.001V70.9479C77.8329 78.3125 71.9707 84.3156 64.6597 84.5369C64.5189 84.5436 64.378 84.5436 64.2372 84.5436H64.2305C64.0963 84.5436 63.9488 84.5436 63.8146 84.5369C59.75 84.4162 56.128 82.5046 53.7201 79.5668C51.7951 77.2192 50.6348 74.2144 50.6348 70.9479V61.001H77.8329Z" fill="#DCA226"/>
  <path d="M50.6348 62.3424V70.9479C50.6348 74.2143 51.7951 77.2192 53.7201 79.5668C54.9543 79.9826 56.2689 80.2241 57.6305 80.2643C57.7646 80.2777 57.9122 80.2777 58.0463 80.2777H58.053C58.1939 80.2777 58.328 80.2777 58.4756 80.2643C65.7866 80.0497 71.6487 74.0399 71.6487 66.682V62.3424H50.6348Z" fill="#F1CE3D"/>
  <path d="M64.6551 60.9996V84.5376C64.5115 84.5463 64.3767 84.5463 64.2332 84.5463H64.2244C64.0896 84.5463 63.9461 84.5463 63.8113 84.5376V60.9996H64.6551Z" fill="#AB531F"/>
  <path d="M67.5539 70.9908C67.5539 69.1571 66.0669 67.67 64.2331 67.67C62.3994 67.67 60.9124 69.1571 60.9124 70.9908C60.9124 72.0962 61.4583 73.0688 62.2894 73.6724V77.8752H66.1769V73.6724C67.0079 73.0688 67.5539 72.0962 67.5539 70.9908Z" fill="#1E200F"/>
  <path d="M55.3399 74.2593C56.8361 74.2593 58.049 72.5211 58.049 70.3771C58.049 68.233 56.8361 66.4949 55.3399 66.4949C53.8438 66.4949 52.6309 68.233 52.6309 70.3771C52.6309 72.5211 53.8438 74.2593 55.3399 74.2593Z" fill="white"/>
  <path d="M82.4676 61.001H45.9933C45.9933 56.9565 47.3817 53.2339 49.7025 50.2827C50.125 49.7327 50.5878 49.2162 51.0775 48.7266C52.6805 47.1235 54.5988 45.8357 56.725 44.9571C58.764 44.1053 61.0043 43.6425 63.3518 43.6425H65.1158C74.7006 43.6425 82.4676 51.4162 82.4676 61.001Z" fill="#DCA226"/>
  <path d="M76.2298 61.001H45.9933C45.9933 56.9565 47.3817 53.234 49.7025 50.2827C50.125 49.7327 50.5878 49.2163 51.0775 48.7266C52.6805 47.1236 54.5988 45.8358 56.725 44.9571C56.8726 44.9504 57.0201 44.9504 57.1677 44.9504H58.9317C68.0738 44.9504 75.5658 52.0266 76.2298 61.001Z" fill="#F1CE3D"/>
  <path d="M58.6123 54.8532C60.099 53.3082 60.4302 51.2147 59.352 50.1773C58.2739 49.1398 56.1946 49.5513 54.7079 51.0963C53.2212 52.6413 52.89 54.7348 53.9682 55.7723C55.0463 56.8097 57.1256 56.3983 58.6123 54.8532Z" fill="white"/>
</svg>