<svg width="1247" height="87" viewBox="0 0 1247 87" fill="none" xmlns="http://www.w3.org/2000/svg">
<path d="M1243.33 13.1773C1237.15 9.70453 1246.25 6.03597 1237.59 3.73768C1236.23 3.70142 1234.86 3.67424 1233.51 3.65067C1222.41 3.45855 1210.45 3.4513 1198.34 3.1921C1186.28 3.01597 1174.3 2.43322 1162.57 1.45207C1161.08 1.40676 1159.52 0.166986 1158 0.12711L1070.59 0.0129203C1063.66 -0.124832 957.357 0.888374 950.407 0.70712C940.885 0.533117 931.483 0.893811 922.003 0.935499C912.522 0.975375 902.63 1.55176 893.144 1.83089C886.048 2.04114 879.078 2.41634 872.279 2.64472C867.333 2.81147 862.491 3.05254 857.67 3.2066C850.475 3.41323 843.342 3.57817 836.372 3.77393C825.832 4.06937 815.46 4.36481 805.192 4.52431C799.536 4.56963 793.869 4.55513 788.14 4.537C779.713 4.5152 771.287 4.44209 762.867 4.31769C755.932 4.21437 748.79 4.14368 741.443 4.02587C734.98 4.00763 728.521 3.90181 722.081 3.70867C710.783 3.32323 699.435 3.14052 688.083 3.16129C682.907 3.22654 677.758 3.2356 672.77 3.18848C661.995 3.03804 438.85 2.90391 427.684 3.19392C423.657 3.27004 419.728 3.28454 416.049 3.23742C413.188 3.17701 410.323 3.14074 407.456 3.12866C397.021 3.26279 386.847 3.40054 376.917 3.54192C368.345 3.60536 359.919 3.6833 351.769 3.73043C346.186 3.76124 340.629 3.81199 335.099 3.88993C328.905 3.98237 322.822 4.14731 316.691 4.25968C315.449 4.25968 314.202 4.28143 313.002 4.32494C307.771 4.5184 302.505 4.57052 297.25 4.48081C292.83 4.54148 288.412 4.62426 283.998 4.72913C278.864 4.77444 273.646 4.76176 268.428 4.75451L234.457 4.57507C228.196 4.6095 222.065 4.64032 215.919 4.77444C209.762 4.90857 203.24 5.13514 197.068 5.30552C191.981 5.50308 186.716 5.62271 181.389 5.66077C169.942 5.67165 75.7853 5.82753 64.5936 6.12297C54.1428 6.37854 43.6711 6.41479 33.2099 6.23172C31.8846 6.23172 30.5593 6.28066 29.2497 6.37672C26.1627 6.67751 22.9558 6.80238 19.7537 6.74648C17.3326 6.58028 14.8205 6.70961 12.6422 7.11261C12.521 7.14781 12.4185 7.19014 12.3396 7.23768C10.9517 7.96269 9.93948 8.79283 9.36554 9.68459C9.54576 11.8742 8.69451 14.0593 6.84546 16.1535C4.99844 17.6942 3.37577 19.2783 1.9879 20.8987L1.74789 21.1706L10.6699 23.0194L0.182615 23.3801C0.17218 23.5305 0.130439 23.6792 0.0626109 23.8278L0 25.3757L19.8476 28.0945L2.13399 27.828L2.43661 28.6618C2.78618 29.5844 5.6715 30.5215 5.70803 31.4042C5.556 33.1932 4.75486 34.9684 3.32359 36.6877C2.53271 37.6466 2.44126 38.6588 3.0575 39.6331C3.67317 40.6046 4.96713 41.4819 6.78806 42.1525C8.29072 42.6274 9.60555 43.1929 10.6908 43.8291C12.7778 45.667 14.3431 47.5955 15.3605 49.5784C16.0493 52.2247 16.2788 54.8892 16.044 57.5481C16.0127 58.197 15.731 58.8441 15.7675 59.493C15.6632 60.5805 15.7519 61.6717 16.044 62.7556C16.258 63.5694 18.0476 64.3959 18.0476 65.2097C18.284 67.3992 16.7995 69.5698 13.7535 71.4883C11.9323 72.4575 10.6379 73.5344 9.93426 74.6657C8.78639 77.1217 7.58635 79.6139 6.36544 82.1569C5.73933 83.4619 10.1117 84.0854 19.4981 84.303C20.9381 84.3392 22.2738 84.4334 23.6721 84.4715C28.9485 84.7335 34.2991 84.7621 39.5962 84.5567C43.6867 84.2576 47.9808 84.0329 52.3792 83.8897C60.143 83.7501 67.9693 83.7701 75.5974 83.7664C79.5106 83.7646 165.7 84.129 169.347 84.3537C180.283 85.0479 191.48 85.6533 202.938 86.1662C212.376 86.4816 222.107 86.6937 232.135 86.8024C240.514 86.8894 249.019 86.9837 257.529 87C262.23 86.9819 266.9 86.9166 271.491 86.8079C275.352 86.6937 279.281 86.6121 283.257 86.5632C289.964 86.5431 296.671 86.5878 303.371 86.6973C317.867 86.988 332.397 87.014 346.901 86.7752C360.2 86.5306 373.944 86.6121 387.53 86.6049C397.982 86.6373 408.43 86.4539 418.82 86.0557C424.298 85.782 429.808 85.6352 435.323 85.6152C450.428 85.6859 678.347 85.8382 693.421 86.0629C704.378 86.226 715.308 86.5378 726.203 86.8423C737.526 87.0538 748.881 86.9446 760.153 86.516C764.239 86.371 768.397 86.255 772.597 86.1717C782.761 86.0158 792.993 85.9234 803.157 85.782C806.924 85.7078 810.685 85.593 814.432 85.4376C821.846 85.1639 829.192 84.8594 836.601 84.5911C837.807 84.5694 839.017 84.5911 840.212 84.6582C852.249 85.1712 864.124 85.7784 876.286 86.1844C886.393 86.4889 896.671 86.6991 907.065 86.7934C913.425 86.8332 919.837 86.8006 926.229 86.6955C935.85 86.5596 945.492 86.3837 955.155 86.1699C957.847 86.0303 1059.77 85.8708 1062.32 85.6895C1069.75 85.3742 1159.92 85.0552 1167.44 84.8068C1178.11 84.4516 1188.93 84.1906 1199.63 83.8571C1207.29 83.89 1214.84 83.221 1221.52 81.9177C1222.61 81.769 1223.76 81.6965 1224.91 81.7074C1225.56 81.731 1226.16 81.8488 1226.61 82.0391C1227.02 82.398 1227.36 82.7695 1227.61 83.152C1228.78 83.2916 1230.01 83.3332 1231.22 83.2734C1232.44 83.2136 1233.61 83.0541 1234.67 82.804C1235.98 82.5212 1237.09 82.108 1237.9 81.6005C1238.36 81.0839 1238.81 79.2949 1239.12 78.7729C1237.34 76.4869 1236.79 74.1065 1237.5 71.7512L1222.79 71.7838C1227.69 71.7657 1232.57 68.8493 1237.5 70.9138C1247.22 68.8602 1237.35 63.3193 1247 61.3073C1242.14 59.3336 1238.23 57.0994 1235.43 54.6916C1232.63 52.2292 1230.79 49.6467 1229.96 47.0137C1229.07 44.1935 1228.88 41.3517 1229.4 38.5202C1229.91 35.5875 1230.86 32.6711 1232.22 29.7856C1233.56 26.9037 1235.21 24.0924 1236.94 21.4262C1238.66 18.7618 1240.47 16.2387 1242.14 13.906C1242.64 13.6939 1243.05 13.4474 1243.33 13.1773Z" fill="#BE9255"/>
<path d="M1193.09 65.8747C1192.6 65.903 1192.09 65.8938 1191.6 65.8478C1191.12 65.8018 1190.67 65.7201 1190.28 65.6082C1189.2 65.1388 1191.34 64.6041 1193.12 64.4083C1204.46 63.1577 1216.15 62.3307 1228 61.9415C1229.82 61.8817 1231.67 61.8273 1233.52 61.7639C1234.99 58.0836 1233.95 54.3349 1230.48 50.8198C1219.82 36.3558 1225.97 21.2936 1232.18 6.58856C1199.07 6.31849 983.899 6.04842 950.778 5.91611C938.715 7.03263 925.331 7.53651 916.086 10.0777C914.27 10.6758 912.251 11.1634 910.096 11.5241C907.28 11.808 904.314 11.8657 901.425 11.6926L887.447 11.225C848.847 24.9459 799.056 35.687 750.146 46.1344C742.317 48.0339 733.559 49.4226 724.298 50.2325C713.527 50.7014 702.597 50.4441 692.106 49.4749C589.174 42.3226 273.86 34.6339 171.789 26.4122C147.083 24.4221 39.4709 22.3975 14.3901 20.8949C14.6457 22.2543 14.9327 23.6082 15.1466 24.9676C24.1261 24.8589 33.1107 24.8335 42.1058 24.8861C41.391 26.028 40.1231 27.0974 38.3596 28.029C36.6727 28.9352 34.4625 29.7098 31.8689 30.3037C27.43 31.1439 23.2089 32.116 19.2528 33.2092C18.2093 33.579 17.3328 33.9904 16.3206 34.3674C17.5989 48.4943 16.7171 62.6393 13.67 76.7191C13.1098 77.6355 13.1383 78.5837 13.7535 79.4959C14.3692 80.4021 15.5484 81.2305 17.1815 81.8938C20.4309 82.7542 24.3029 83.2849 28.3679 83.4273C46.8955 84.5184 65.6058 85.0023 84.316 84.8755C89.9144 82.7621 178.3 80.6577 184.045 78.5805C184.806 78.2579 185.772 78.0259 186.836 77.9099C187.932 77.8718 189.027 77.9534 190.014 78.1455C191.005 78.3377 191.85 78.6331 192.471 79.0029C196.363 80.9097 199.75 83.3584 206.986 83.8006C208.833 83.9148 211.317 84.0635 211.927 84.5112C258.693 84.0689 305.494 84.0798 352.28 84.1015C409.219 84.1305 678.932 84.1577 735.871 84.1867L769.31 84.2012C767.517 83.1071 765.388 82.0837 762.961 81.1489C759.794 79.9309 755.859 78.6422 756.266 77.0943L774.768 80.1031C778.264 80.7085 781.853 81.216 785.511 81.6274C788.151 81.9011 790.901 82.0824 793.452 82.4231C796.509 82.8464 799.326 83.4538 801.774 84.2175L814.917 84.2248C894.146 84.2646 1155.45 84.3027 1234.6 85.4029C1238.19 79.4161 1239.15 73.2154 1237.44 67.0909L1224.78 66.1031C1224.86 66.0849 1224.92 66.065 1225 66.0451C1214.37 65.8663 1203.73 65.8095 1193.09 65.8747Z" fill="#A4774C"/>
<path d="M31.8689 30.3037C34.3838 29.7346 36.6013 28.9625 38.3596 28.029C40.1527 27.0701 41.4226 26.0047 42.1058 24.8861C33.1189 24.8305 24.1294 24.8577 15.1466 24.9676C15.6423 28.0997 18.9711 30.0754 19.2528 33.2092C20.2651 32.834 18.2093 33.579 19.2528 33.2092C23.2124 32.1165 27.437 31.1449 31.8794 30.3055L31.8689 30.3037ZM206.986 83.8006C199.75 83.3584 196.363 80.9097 192.471 79.0029C191.887 78.646 191.038 78.3499 190.014 78.1455C189.027 77.9534 187.932 77.8718 186.836 77.9099C185.738 78.0348 184.769 78.2678 184.045 78.5805C179.326 80.2787 174.671 81.9984 170.082 83.739C183.022 83.7209 192.977 84.6906 205.885 84.5583C207.899 84.5365 209.913 84.5293 211.927 84.5112C211.317 84.0635 208.833 83.9148 206.986 83.8006ZM785.511 81.6274C781.826 81.2127 778.235 80.7032 774.768 80.1031L756.266 77.0943C755.859 78.6422 759.794 79.9309 762.961 81.1489C764.74 81.6999 766.289 82.3669 767.542 83.1227C778.363 83.1282 790.953 84.2121 801.774 84.2175C799.326 83.4538 796.509 82.8464 793.452 82.4231C790.901 82.0824 788.151 81.9011 785.511 81.6274ZM1233.52 61.7639C1231.67 61.8273 1229.82 61.8817 1228 61.9415C1216.15 62.3307 1204.46 63.1577 1193.12 64.4083C1191.34 64.6041 1189.2 65.1388 1190.28 65.6082C1191.1 65.8384 1192.11 65.9345 1193.09 65.8747C1203.73 65.8095 1214.37 65.8663 1225 66.0451C1227.04 65.5974 1228.84 64.9884 1230.3 64.2525C1231.76 63.5184 1232.86 62.6719 1233.52 61.7639ZM901.67 5.83636C897.109 7.68945 892.365 9.48553 887.447 11.225C892.106 11.3791 896.765 11.535 901.425 11.6926C904.314 11.8657 907.28 11.808 910.096 11.5241C912.251 11.1634 914.27 10.6758 916.086 10.0777C925.331 7.53651 938.715 7.03263 950.778 5.91611C934.405 5.85086 918.037 5.82548 901.67 5.83636Z" fill="#A4774C"/>
<path d="M692.106 49.4749C702.666 50.4464 713.54 50.702 724.298 50.2325C733.559 49.4226 742.317 48.0339 750.146 46.1344C799.056 35.687 848.847 24.9459 887.447 11.225L873.886 10.7719C852.943 10.0741 831.994 9.37442 811.16 8.41921C802.244 8.00526 793.344 7.54966 784.462 7.05256C768.854 7.51058 753.178 7.61835 737.53 7.37519C721.147 6.98913 705.045 5.80735 688.652 5.46297C667.604 5.0189 433.773 5.95961 412.731 6.44537C408.113 6.55231 403.491 6.63749 398.863 6.69912L398.774 6.73537C395.696 8.1129 397.553 10.1919 393.922 11.4389C391.96 11.9337 389.701 12.2002 387.4 12.2128C385.048 12.2203 382.749 11.9732 380.82 11.506C377.424 10.6214 374.658 9.38529 372.806 7.91896L371.241 6.88944C355.88 6.8985 340.494 6.76981 325.112 6.61031C324.517 6.75168 323.912 6.88944 323.317 7.02175L306.141 10.8444C307.498 9.24935 309.543 7.77033 312.183 6.47255C270.446 5.63826 228.584 5.96556 186.998 7.45132C165.355 8.42646 59.9499 9.99793 39.3614 7.74858C30.1524 6.74443 18.2302 5.20197 12.0735 7.51476L11.5256 8.36303C12.6944 12.5355 13.597 16.7134 14.3901 20.8949C39.4709 22.3975 147.083 24.4221 171.789 26.4122C273.86 34.6339 589.174 42.3226 692.106 49.4749Z" fill="#BE9255"/>
<path d="M372.634 8.33221C372.686 8.33221 372.749 8.14552 372.806 8.18358C374.669 9.60824 377.439 10.8009 380.82 11.6365C382.7 12.1297 384.972 12.4101 387.327 12.4394C389.674 12.459 391.98 12.2246 393.927 11.7688C396.697 10.8136 396.275 8.33221 397.297 8.33221H372.634ZM312.35 6.47437L312.183 6.47255C309.494 7.80547 307.457 9.28226 306.141 10.8444L320.557 7.6362C317.642 7.42395 314.862 7.03034 312.35 6.47437Z" fill="#A4774C"/>
<path d="M788.015 6.97825L784.462 7.05256C793.342 7.54376 802.233 8.01321 811.16 8.41921C831.994 9.37442 852.943 10.0741 873.886 10.7719L887.447 11.225C892.365 9.48553 897.109 7.68945 901.67 5.83636C863.748 5.87986 825.848 6.1898 788.015 6.97825Z" fill="#A4774C"/>
<circle cx="57.5" cy="45.5" r="30.5" fill="white"/>
<path d="M57.1607 30.6764C56.5054 31.8813 55.0011 32.3248 53.8006 31.6672C52.72 31.0753 52.2539 29.793 52.6495 28.6641C49.6669 28.5944 47.3112 29.1401 45.7108 30.5978C43.8746 32.2701 42.8903 35.2776 43.3056 40.4337C43.3104 40.4939 43.3052 40.5564 43.2886 40.6176C42.7971 42.4281 41.8456 43.4774 40.136 44.8976C40.3899 45.3418 40.6086 45.601 40.8465 45.7898C41.148 46.0292 41.5179 46.1877 42.1509 46.4194C42.4599 46.5325 42.5879 46.891 42.4397 47.1726C41.9765 48.0533 41.8984 48.5088 41.9589 48.757C42.0047 48.945 42.1735 49.1535 42.8009 49.3831C43.0601 49.478 43.2046 49.7563 43.1339 50.0238C43.0299 50.4171 42.9657 50.7191 42.9405 50.9577C42.9152 51.1974 42.9337 51.3361 42.9635 51.4202C43.0047 51.5361 43.1157 51.686 43.7048 51.8445C44.0011 51.9243 44.178 52.245 44.0677 52.5465C43.8438 53.1581 43.7592 53.5522 43.8055 53.9171C43.8478 54.2504 44.009 54.6246 44.4211 55.1557C45.9866 55.5457 47.2933 55.5403 50.2471 55.1441C50.3309 55.1328 50.4167 55.1418 50.4967 55.1704C51.0041 55.3517 51.3825 55.5563 51.6775 55.8516C51.7103 55.8845 51.7416 55.918 51.7716 55.9521C51.8642 55.9274 51.9615 55.9142 52.0618 55.9142C52.6825 55.9142 53.1856 56.4191 53.1856 57.042C53.1856 57.2078 53.15 57.3652 53.086 57.507L55.2164 60.1649C55.4921 60.0233 55.8046 59.9435 56.1356 59.9435C56.5786 59.9435 56.9883 60.0865 57.3214 60.3291L62.6355 56.507C62.6047 56.3911 62.5883 56.2694 62.5883 56.1438C62.5883 55.8151 62.7008 55.5126 62.8893 55.273L60.7514 51.674C60.4515 51.7874 60.1265 51.8494 59.7872 51.8494C58.2756 51.8494 57.0502 50.6186 57.0502 49.1003C57.0502 47.5821 58.2756 46.3513 59.7872 46.3513C60.2019 46.3513 60.5952 46.4439 60.9475 46.6098L63.2687 43.3568C62.9662 42.9947 62.7839 42.528 62.7839 42.0185C62.7839 40.8677 63.7135 39.9348 64.8601 39.9348C65.8338 39.9348 66.651 40.6075 66.8753 41.5152L72.2698 41.682C72.5 41.1959 72.9938 40.8598 73.5658 40.8598C74.3579 40.8598 75 41.5042 75 42.2991C75 43.0941 74.3579 43.7385 73.5658 43.7385C72.9077 43.7385 72.3531 43.2937 72.1844 42.6872L66.875 42.523C66.6503 43.43 65.8334 44.1021 64.8601 44.1021C64.5842 44.1021 64.3209 44.0481 64.08 43.95L61.7627 47.1976C62.2343 47.6915 62.5241 48.3619 62.5241 49.1003C62.5241 49.9156 62.1708 50.648 61.6096 51.1514L63.7515 54.7571C63.8299 54.7434 63.9107 54.7363 63.993 54.7363C64.7689 54.7363 65.3978 55.3665 65.3978 56.1438C65.3978 56.9212 64.7689 57.5513 63.993 57.5513C63.7095 57.5513 63.4456 57.4672 63.2249 57.3224L57.9639 61.1064C58.0875 61.3688 58.1566 61.6622 58.1566 61.9717C58.1566 63.0919 57.2518 64 56.1356 64C55.0194 64 54.1146 63.0919 54.1146 61.9717C54.1146 61.5494 54.2432 61.1572 54.4632 60.8325L52.3074 58.1428C52.2284 58.1605 52.1462 58.1698 52.0618 58.1698C51.4412 58.1698 50.9381 57.6649 50.9381 57.042C50.9381 56.894 50.9664 56.7527 51.0181 56.6233C51.0012 56.6039 50.9839 56.5854 50.966 56.5675C50.8308 56.4321 50.6317 56.3024 50.2641 56.1618C47.2533 56.5611 45.8173 56.5679 44.0147 56.0951C43.9033 56.0659 43.8061 56.0017 43.7359 55.9151C43.1979 55.2517 42.8856 54.6709 42.8061 54.0449C42.7469 53.5785 42.8232 53.1298 42.9646 52.6632C42.5303 52.4855 42.1776 52.2192 42.0145 51.7594C41.9138 51.4757 41.9053 51.1671 41.9387 50.8512C41.9606 50.643 42.0027 50.4154 42.0596 50.1682C41.5414 49.9208 41.1196 49.5687 40.9803 48.9972C40.8511 48.4673 41.0016 47.8628 41.3118 47.1814C40.9015 47.016 40.543 46.8381 40.2214 46.5828C39.7678 46.2227 39.4245 45.7401 39.0585 45.0223C38.9448 44.7992 39.0001 44.5234 39.1969 44.3629C41.0324 42.8655 41.8562 41.9763 42.2947 40.4306C41.8873 35.2073 42.863 31.8261 45.0337 29.849C47.0332 28.0279 49.9262 27.5123 53.2893 27.6755C54.0481 26.9584 55.2089 26.7759 56.1734 27.3043C57.0121 27.7637 57.4806 28.639 57.4634 29.5356L61.7645 30.4611C61.7967 30.3736 61.8357 30.2874 61.8815 30.2031C62.3904 29.2674 63.5588 28.9228 64.4912 29.4336C64.8375 29.6233 65.1026 29.9043 65.2729 30.2305L69.951 29.0375C69.9801 28.8041 70.0526 28.5722 70.1717 28.3532C70.6806 27.4174 71.849 27.0729 72.7814 27.5836C73.7138 28.0944 74.0571 29.267 73.5482 30.2028C73.0393 31.1385 71.8709 31.4831 70.9385 30.9723C70.53 30.7486 70.2346 30.3978 70.0744 29.9956L65.4932 31.1639C65.4879 31.4653 65.4119 31.7698 65.258 32.0527C64.7712 32.9479 63.6808 33.302 62.7709 32.8839L59.639 37.6028C60.5504 38.4885 60.8016 39.9075 60.1642 41.0796C59.3986 42.4873 57.6408 43.0057 56.2381 42.2373C56.162 42.1956 56.0886 42.151 56.0178 42.1037L52.6156 45.0252C52.7431 45.3811 52.7241 45.7879 52.5294 46.1459C52.1681 46.8103 51.3385 47.0549 50.6765 46.6923C50.0146 46.3296 49.7708 45.4971 50.1322 44.8328C50.4935 44.1684 51.323 43.9238 51.985 44.2864C51.9893 44.2888 51.9936 44.2912 51.9978 44.2935L55.3177 41.4427C54.6517 40.5598 54.5216 39.3321 55.0845 38.297C55.8215 36.9418 57.4779 36.4109 58.852 37.0585L62.0246 32.2783C61.8375 32.0248 61.7161 31.7297 61.6686 31.4213L57.2599 30.4727C57.2302 30.5414 57.1971 30.6094 57.1607 30.6764Z" fill="url(#paint0_linear_203_12)"/>
<defs>
<linearGradient id="paint0_linear_203_12" x1="42.2331" y1="46.8792" x2="66.4264" y2="37.2776" gradientUnits="userSpaceOnUse">
<stop stop-color="#9C03D7"/>
<stop offset="1" stop-color="#F87A01"/>
</linearGradient>
</defs>
</svg>
