<svg xmlns="http://www.w3.org/2000/svg" width="170" height="41" viewBox="0 0 170 41" fill="none">
  <path d="M168.723 6.82415C167.887 5.22405 169.118 3.53376 167.946 2.47482C167.761 2.45812 167.577 2.44559 167.394 2.43474C165.893 2.34621 164.274 2.34287 162.636 2.22345C161.005 2.1423 159.384 1.87379 157.797 1.42173C157.595 1.40085 157.385 0.829624 157.179 0.811252L145.354 0.758639C144.416 0.695169 130.036 1.162 129.095 1.07849C127.807 0.99832 126.535 1.16451 125.253 1.18372C123.97 1.20209 122.632 1.46766 121.349 1.59627C120.389 1.69314 119.446 1.86602 118.526 1.97124C117.857 2.04807 117.202 2.15914 116.55 2.23013C115.577 2.32533 114.612 2.40133 113.669 2.49152C112.243 2.62765 110.84 2.76377 109.451 2.83727C108.685 2.85814 107.919 2.85146 107.144 2.84311C106.004 2.83307 104.864 2.79938 103.725 2.74206C102.787 2.69446 101.82 2.66189 100.827 2.60761C99.9522 2.5992 99.0784 2.55045 98.2072 2.46146C96.6788 2.28386 95.1437 2.19968 93.608 2.20925C92.9078 2.23932 92.2112 2.24349 91.5364 2.22178C90.0788 2.15246 59.8915 2.09066 58.381 2.22428C57.8361 2.25936 57.3046 2.26604 56.807 2.24433C56.4199 2.21649 56.0323 2.19979 55.6445 2.19422C54.2328 2.25602 52.8564 2.31949 51.5132 2.38463C50.3535 2.41386 49.2136 2.44977 48.1111 2.47148C47.3558 2.48568 46.6041 2.50906 45.8559 2.54497C45.0181 2.58756 44.1951 2.66356 43.3657 2.71534C43.1977 2.71534 43.029 2.72536 42.8667 2.7454C42.159 2.83454 41.4466 2.85855 40.7358 2.81722C40.1377 2.84517 39.5401 2.88331 38.943 2.93164C38.2484 2.95251 37.5426 2.94667 36.8367 2.94333L32.241 2.86065C31.394 2.87652 30.5647 2.89071 29.7332 2.95251C28.9003 3.01431 28.018 3.1187 27.183 3.19721C26.4948 3.28823 25.7826 3.34335 25.0619 3.36089C23.5133 3.3659 10.7758 3.43772 9.26175 3.57385C7.84795 3.6916 6.43133 3.7083 5.01613 3.62395C4.83685 3.62395 4.65756 3.6465 4.4804 3.69076C4.06279 3.82935 3.62895 3.88689 3.19577 3.86113C2.86824 3.78455 2.5284 3.84414 2.23371 4.02983C2.21732 4.04604 2.20346 4.06555 2.19278 4.08745C2.00502 4.4215 1.86809 4.80399 1.79045 5.21487C1.81483 6.22373 1.69967 7.23053 1.44953 8.19543C1.19966 8.90529 0.980145 9.63519 0.792392 10.3818L0.759924 10.5071L1.96691 11.3589L0.548172 11.5251C0.546761 11.5944 0.541114 11.6629 0.531938 11.7314L0.523468 12.4446L3.20848 13.6972L0.812156 13.5745L0.853094 13.9586C0.900386 14.3837 1.29071 14.8155 1.29566 15.2222C1.27509 16.0465 1.16671 16.8644 0.973087 17.6566C0.866096 18.0984 0.853725 18.5648 0.937089 19.0136C1.02038 19.4613 1.19543 19.8655 1.44176 20.1745C1.64505 20.3933 1.82292 20.6538 1.96973 20.947C2.25207 21.7938 2.46382 22.6824 2.60146 23.596C2.69463 24.8153 2.72568 26.0429 2.69392 27.268C2.68969 27.567 2.65157 27.8651 2.65651 28.1641C2.64239 28.6652 2.65439 29.1679 2.69392 29.6673C2.72286 30.0423 2.96496 30.4231 2.96496 30.7981C2.99695 31.8069 2.79613 32.807 2.38406 33.691C2.13769 34.1375 1.96257 34.6337 1.86738 35.155C1.7121 36.2865 1.54976 37.4348 1.38459 38.6065C1.29989 39.2078 1.89138 39.4951 3.16119 39.5953C3.356 39.612 3.53669 39.6554 3.72586 39.673C4.43964 39.7937 5.16348 39.8069 5.88007 39.7122C6.43345 39.5744 7.01436 39.4709 7.60938 39.4049C8.65967 39.3406 9.71842 39.3498 10.7504 39.3481C11.2797 39.3473 22.9395 39.5151 23.4329 39.6187C24.9123 39.9386 26.427 40.2175 27.977 40.4538C29.2539 40.5991 30.5703 40.6968 31.9269 40.747C33.0605 40.787 34.211 40.8305 35.3622 40.838C35.9982 40.8296 36.6299 40.7996 37.2511 40.7495C37.7734 40.6968 38.3049 40.6593 38.8427 40.6367C39.75 40.6274 40.6574 40.6481 41.5637 40.6985C43.5248 40.8325 45.4904 40.8444 47.4525 40.7344C49.2517 40.6217 51.1109 40.6593 52.9489 40.6559C54.3629 40.6709 55.7763 40.5864 57.1818 40.4029C57.9229 40.2768 58.6683 40.2091 59.4144 40.1999C61.4578 40.2325 92.2909 40.3027 94.3301 40.4062C95.8123 40.4814 97.2911 40.625 98.7649 40.7653C100.297 40.8628 101.833 40.8125 103.358 40.615C103.91 40.5482 104.473 40.4947 105.041 40.4563C106.416 40.3845 107.8 40.3419 109.175 40.2768C109.685 40.2426 110.194 40.1897 110.701 40.1181C111.704 39.992 112.697 39.8517 113.7 39.7281C113.863 39.7181 114.026 39.7281 114.188 39.759C115.817 39.9953 117.423 40.2751 119.068 40.4622C120.436 40.6025 121.826 40.6994 123.232 40.7428C124.092 40.7612 124.96 40.7461 125.825 40.6977C127.126 40.635 128.431 40.554 129.738 40.4555C130.102 40.3912 143.891 40.3177 144.236 40.2342C145.24 40.0889 157.438 39.9419 158.455 39.8275C159.9 39.6638 161.363 39.5435 162.811 39.3899C163.847 39.405 164.869 39.0968 165.772 38.4963C165.92 38.4278 166.075 38.3944 166.23 38.3994C166.318 38.4103 166.4 38.4646 166.46 38.5522C166.516 38.7176 166.561 38.8888 166.595 39.065C166.754 39.1293 166.921 39.1485 167.084 39.121C167.249 39.0934 167.408 39.0199 167.551 38.9047C167.727 38.7744 167.878 38.584 167.987 38.3501C168.05 38.1121 168.111 37.2879 168.153 37.0473C167.912 35.9941 167.838 34.8973 167.933 33.8121L165.943 33.8271C166.606 33.8188 167.267 32.475 167.933 33.4262C169.248 32.48 167.913 29.9271 169.219 29.0001C168.561 28.0907 168.033 27.0613 167.654 25.9519C167.274 24.8173 167.025 23.6274 166.914 22.4143C166.793 21.1149 166.768 19.8055 166.838 18.5009C166.907 17.1496 167.035 15.8059 167.22 14.4764C167.401 13.1486 167.624 11.8533 167.857 10.6248C168.091 9.39718 168.335 8.23468 168.562 7.15988C168.629 7.06217 168.684 6.94859 168.723 6.82415Z" fill="#50351D"/>
  <path d="M161.926 31.1045C161.859 31.1175 161.79 31.1133 161.725 31.0921C161.659 31.0709 161.598 31.0333 161.546 30.9817C161.4 30.7654 161.69 30.5191 161.93 30.4289C163.464 29.8526 165.046 29.4716 166.648 29.2923C166.894 29.2647 167.145 29.2397 167.395 29.2104C167.594 27.5147 167.453 25.7875 166.984 24.1679C165.542 17.5036 166.374 10.5637 167.214 3.78837C162.735 3.66393 133.626 3.5395 129.146 3.47853C127.514 3.99297 125.703 4.22514 124.452 5.39598C124.207 5.67157 123.934 5.89622 123.642 6.06241C123.261 6.19324 122.86 6.2198 122.469 6.14008L120.578 5.92462C115.356 12.2465 108.62 17.1955 102.004 22.0091C100.945 22.8843 99.76 23.5242 98.5072 23.8974C97.0501 24.1134 95.5714 23.9948 94.1522 23.5483C80.2274 20.2529 37.5715 16.7103 23.7632 12.9221C20.421 12.0052 5.86313 11.0723 2.47017 10.38C2.50476 11.0064 2.54358 11.6302 2.57252 12.2565C3.78726 12.2064 5.00272 12.1947 6.21958 12.219C6.12288 12.7451 5.95136 13.2378 5.71279 13.6671C5.48459 14.0846 5.18559 14.4415 4.83473 14.7151C4.23422 15.1023 3.66319 15.5502 3.12801 16.0539C2.98684 16.2242 2.86826 16.4138 2.73133 16.5875C2.90426 23.0965 2.78497 29.6138 2.37276 36.101C2.29697 36.5233 2.30083 36.9602 2.38406 37.3805C2.46735 37.798 2.62687 38.1797 2.84779 38.4853C3.28738 38.8817 3.81119 39.1263 4.36111 39.1918C6.86754 39.6946 9.39868 39.9176 11.9298 39.8591C12.6872 38.8853 24.6441 37.9158 25.4212 36.9587C25.5243 36.8101 25.6548 36.7032 25.7988 36.6497C25.9471 36.6322 26.0953 36.6698 26.2287 36.7583C26.3628 36.8468 26.4771 36.9829 26.5611 37.1533C27.0877 38.0319 27.5458 39.1601 28.5248 39.3639C28.7746 39.4165 29.1106 39.485 29.1932 39.6912C35.5196 39.4875 41.851 39.4925 48.1803 39.5025C55.8831 39.5159 92.37 39.5284 100.073 39.5418L104.596 39.5484C104.354 39.0443 104.066 38.5728 103.737 38.1421C103.309 37.5809 102.777 36.9871 102.832 36.2739L105.335 37.6602C105.808 37.9392 106.293 38.173 106.788 38.3626C107.145 38.4887 107.517 38.5722 107.862 38.7292C108.276 38.9242 108.657 39.2041 108.988 39.556L110.766 39.5593C121.484 39.5777 156.834 39.5952 167.541 40.1021C168.027 37.3437 168.157 34.4867 167.926 31.6649L166.213 31.2097C166.224 31.2014 166.232 31.1922 166.243 31.183C164.805 31.1006 163.365 31.0744 161.926 31.1045Z" fill="#614326"/>
  <path d="M4.83473 14.7151C5.17494 14.4529 5.47492 14.0972 5.71279 13.6671C5.95536 13.2252 6.12715 12.7344 6.21958 12.219C5.00383 12.1934 3.78771 12.2059 2.57252 12.2565C2.63957 13.6996 3.0899 14.6099 3.12801 16.0539C2.98684 16.2242 3.26494 15.881 3.12801 16.0539C3.66366 15.5504 4.23517 15.1027 4.83614 14.716L4.83473 14.7151ZM28.5248 39.3639C27.5458 39.1601 27.0877 38.0319 26.5611 37.1533C26.4821 36.9889 26.3673 36.8525 26.2287 36.7583C26.0953 36.6698 25.9471 36.6322 25.7988 36.6497C25.6503 36.7073 25.5191 36.8146 25.4212 36.9587C24.7828 37.7412 24.1532 38.5335 23.5324 39.3355C25.2829 39.3271 26.6296 39.7739 28.3758 39.713C28.6483 39.7029 28.9208 39.6996 29.1932 39.6912C29.1106 39.485 28.7746 39.4165 28.5248 39.3639ZM106.788 38.3626C106.29 38.1715 105.804 37.9367 105.335 37.6602L102.832 36.2739C102.777 36.9871 103.309 37.5809 103.737 38.1421C103.978 38.396 104.188 38.7033 104.357 39.0515C105.821 39.054 107.524 39.5534 108.988 39.556C108.657 39.2041 108.276 38.9242 107.862 38.7292C107.517 38.5722 107.145 38.4887 106.788 38.3626ZM167.395 29.2104C167.145 29.2397 166.894 29.2647 166.648 29.2923C165.046 29.4716 163.464 29.8526 161.93 30.4289C161.69 30.5191 161.4 30.7654 161.546 30.9817C161.657 31.0878 161.793 31.132 161.926 31.1045C163.365 31.0744 164.805 31.1006 166.243 31.183C166.518 30.9767 166.763 30.6961 166.96 30.357C167.158 30.0188 167.306 29.6288 167.395 29.2104ZM122.502 3.44179C121.885 4.2956 121.243 5.12315 120.578 5.92462C121.208 5.9956 121.839 6.06742 122.469 6.14008C122.86 6.2198 123.261 6.19324 123.642 6.06241C123.934 5.89622 124.207 5.67157 124.452 5.39598C125.703 4.22514 127.514 3.99297 129.146 3.47853C126.931 3.44847 124.716 3.43678 122.502 3.44179Z" fill="#51351D"/>
  <path d="M94.1522 23.5483C95.5808 23.9959 97.0518 24.1136 98.5072 23.8974C99.76 23.5242 100.945 22.8843 102.004 22.0091C108.62 17.1955 115.356 12.2465 120.578 5.92462L118.744 5.71584C115.91 5.39431 113.076 5.07195 110.258 4.63184C109.052 4.44111 107.848 4.2312 106.646 4.00216C104.535 4.21319 102.414 4.26284 100.297 4.15081C98.0809 3.97293 95.9027 3.42843 93.6849 3.26975C90.8376 3.06515 59.2047 3.49858 56.3581 3.72239C55.7334 3.77166 55.1081 3.81091 54.482 3.83931L54.47 3.85601C54.0535 4.49071 54.3048 5.4486 53.8135 6.02316C53.5482 6.25115 53.2425 6.37391 52.9312 6.37976C52.6132 6.38318 52.3021 6.26934 52.0412 6.05406C51.5817 5.64652 51.2076 5.07697 50.957 4.40135L50.7453 3.927C48.6673 3.93117 46.5858 3.87188 44.505 3.79839C44.4245 3.86353 44.3426 3.927 44.2621 3.98796L41.9385 5.74924C42.122 5.01433 42.3987 4.33287 42.7559 3.73492C37.1097 3.35052 31.4466 3.50132 25.8207 4.18589C22.8929 4.63518 8.63355 5.35924 5.84831 4.32285C4.60251 3.86019 2.98967 3.1495 2.15678 4.21512L2.08266 4.60595C2.24077 6.52841 2.36288 8.45338 2.47017 10.38C5.86313 11.0723 20.421 12.0052 23.7632 12.9221C37.5715 16.7103 80.2274 20.2529 94.1522 23.5483Z" fill="#3F2814"/>
  <path d="M50.9337 4.59176C50.9408 4.59176 50.9493 4.50574 50.957 4.52328C51.209 5.17969 51.5838 5.7292 52.0412 6.11419C52.2955 6.34147 52.6028 6.47063 52.9214 6.48415C53.2389 6.49317 53.5509 6.38519 53.8143 6.17516C54.1891 5.73504 54.1319 4.59176 54.2702 4.59176H50.9337ZM42.7785 3.73575L42.7559 3.73492C42.3921 4.34906 42.1165 5.02949 41.9385 5.74924L43.8888 4.27107C43.4944 4.17327 43.1183 3.99192 42.7785 3.73575Z" fill="#51351D"/>
  <path d="M107.127 3.96792L106.646 4.00216C107.848 4.22848 109.05 4.44477 110.258 4.63184C113.076 5.07195 115.91 5.39431 118.744 5.71584L120.578 5.92462C121.243 5.12315 121.885 4.2956 122.502 3.44179C117.372 3.46183 112.245 3.60464 107.127 3.96792Z" fill="#4B301A"/>
</svg>